<?xml version="1.0" standalone="no"?>
<!DOCTYPE svg PUBLIC "-//W3C//DTD SVG 20010904//EN"
 "http://www.w3.org/TR/2001/REC-SVG-20010904/DTD/svg10.dtd">
<svg version="1.0" xmlns="http://www.w3.org/2000/svg"
 width="862.000000pt" height="333.000000pt" viewBox="0 0 862.000000 333.000000"
 preserveAspectRatio="xMidYMid meet">

<g transform="translate(0.000000,333.000000) scale(0.100000,-0.100000)"
fill="#000000" stroke="none">
<path d="M0 1665 l0 -1665 4310 0 4310 0 0 1665 0 1665 -4310 0 -4310 0 0
-1665z m7977 1537 c158 -83 173 -303 26 -402 -33 -22 -47 -25 -133 -25 -91 0
-99 2 -139 29 -66 46 -95 105 -95 191 0 105 37 160 149 219 48 25 131 20 192
-12z m-6658 -692 c41 -11 83 -20 92 -20 37 0 171 -73 225 -122 68 -62 106
-135 128 -244 20 -101 20 -124 0 -215 -23 -100 -53 -157 -109 -205 -26 -21
-54 -46 -63 -55 -31 -29 -100 -58 -202 -83 -87 -23 -122 -26 -259 -26 -107 0
-173 5 -207 14 -27 8 -79 18 -116 21 -84 9 -89 1 -64 -99 22 -86 62 -160 115
-212 41 -39 135 -94 161 -94 9 0 27 -8 40 -17 37 -26 263 -26 300 0 13 9 34
17 45 17 11 0 69 25 130 55 60 30 114 55 120 55 29 0 85 -68 110 -132 l26 -68
-24 -40 c-13 -22 -39 -52 -58 -66 -43 -33 -172 -94 -197 -94 -11 0 -37 -8 -58
-17 -33 -14 -74 -17 -259 -18 -191 0 -224 2 -252 18 -18 9 -43 17 -56 17 -13
0 -35 8 -48 18 -13 9 -50 31 -83 47 -136 69 -299 278 -322 413 -3 20 -13 57
-22 82 -13 35 -17 81 -17 215 0 180 10 244 62 408 48 153 160 288 298 359 66
34 156 68 180 68 11 0 49 9 85 19 87 26 204 26 299 1z m1914 0 c31 -11 63 -20
70 -20 32 0 138 -64 171 -103 70 -82 85 -104 101 -148 54 -147 65 -287 65
-821 0 -500 -2 -516 -62 -537 -33 -12 -199 -13 -235 -3 -12 4 -31 19 -42 33
-20 26 -21 40 -24 550 l-3 524 -24 60 c-32 79 -53 107 -103 136 -36 20 -56 24
-132 24 -78 0 -99 -4 -155 -29 -73 -33 -170 -124 -213 -199 -47 -86 -50 -114
-56 -604 -6 -425 -7 -464 -24 -480 -14 -15 -39 -19 -130 -21 -129 -5 -183 10
-191 50 -3 13 -7 291 -9 618 -4 494 -7 615 -21 714 -21 143 -16 177 26 207 43
31 157 32 207 1 35 -21 75 -100 89 -176 9 -50 25 -55 58 -19 108 116 143 145
221 183 46 22 91 40 100 40 10 0 47 9 83 19 86 26 162 26 233 1z m4763 -28 c5
-4 18 -18 27 -32 16 -22 17 -77 17 -613 0 -667 -1 -657 67 -657 21 1 49 7 63
15 41 24 75 18 104 -16 14 -17 26 -38 26 -47 0 -9 9 -30 20 -47 28 -43 26 -85
-7 -121 -92 -99 -295 -144 -424 -93 -120 47 -160 112 -200 327 -6 32 -8 283
-7 635 l3 582 29 38 28 37 122 0 c66 0 126 -4 132 -8z"/>
<path d="M1060 2204 c-78 -15 -147 -49 -190 -94 -77 -80 -127 -200 -102 -246
30 -56 453 -70 553 -18 17 8 47 31 67 50 35 33 37 38 40 109 4 66 1 80 -19
111 -13 19 -44 46 -68 61 -39 22 -57 26 -150 29 -58 1 -117 0 -131 -2z"/>
</g>
</svg>
